Normalized EMG Linear Envelopes
nRows=207
nColumns=4

endheader
time	 med_gas_r	  soleus_r	 tib_ant_r	
3.09375	  0.001930	  0.002417	  0.001195	
3.12702	  0.003089	  0.002408	  0.001215	
3.16028	  0.004172	  0.002405	  0.001234	
3.19355	  0.005129	  0.002410	  0.001251	
3.22681	  0.005843	  0.002422	  0.001265	
3.26008	  0.006180	  0.002444	  0.001273	
3.29335	  0.006073	  0.002475	  0.001274	
3.32661	  0.005568	  0.002509	  0.001264	
3.35988	  0.004812	  0.002541	  0.001244	
3.39315	  0.003985	  0.002563	  0.001215	
3.42641	  0.003230	  0.002573	  0.001178	
3.45968	  0.002622	  0.002572	  0.001141	
3.49294	  0.002183	  0.002563	  0.001112	
3.52621	  0.001906	  0.002548	  0.001097	
3.55948	  0.001782	  0.002530	  0.001095	
3.59274	  0.001798	  0.002510	  0.001106	
3.62601	  0.001928	  0.002489	  0.001123	
3.65927	  0.002130	  0.002466	  0.001144	
3.69254	  0.002341	  0.002437	  0.001164	
3.72581	  0.002492	  0.002399	  0.001181	
3.75907	  0.002540	  0.002357	  0.001189	
3.79234	  0.002479	  0.002317	  0.001189	
3.8256	  0.002335	  0.002290	  0.001183	
3.85887	  0.002154	  0.002283	  0.001174	
3.89214	  0.001973	  0.002301	  0.001167	
3.9254	  0.001813	  0.002340	  0.001163	
3.95867	  0.001685	  0.002394	  0.001165	
3.99194	  0.001593	  0.002451	  0.001171	
4.0252	  0.001538	  0.002503	  0.001185	
4.05847	  0.001518	  0.002543	  0.001210	
4.09173	  0.001526	  0.002569	  0.001248	
4.125	  0.001554	  0.002583	  0.001299	
4.15827	  0.001592	  0.002585	  0.001358	
4.19153	  0.001630	  0.002574	  0.001423	
4.2248	  0.001663	  0.002547	  0.001490	
4.25806	  0.001685	  0.002508	  0.001554	
4.29133	  0.001693	  0.002461	  0.001610	
4.3246	  0.001685	  0.002418	  0.001649	
4.35786	  0.001666	  0.002386	  0.001662	
4.39113	  0.001642	  0.002370	  0.001642	
4.4244	  0.001619	  0.002369	  0.001591	
4.45766	  0.001602	  0.002382	  0.001519	
4.49093	  0.001590	  0.002406	  0.001441	
4.52419	  0.001586	  0.002438	  0.001374	
4.55746	  0.001589	  0.002473	  0.001327	
4.59073	  0.001601	  0.002500	  0.001302	
4.62399	  0.001620	  0.002507	  0.001293	
4.65726	  0.001642	  0.002490	  0.001289	
4.69052	  0.001662	  0.002449	  0.001274	
4.72379	  0.001675	  0.002392	  0.001235	
4.75706	  0.001682	  0.002327	  0.001160	
4.79032	  0.001686	  0.002264	  0.001043	
4.82359	  0.001691	  0.002208	  0.000881	
4.85685	  0.001700	  0.002164	  0.000681	
4.89012	  0.001716	  0.002132	  0.000472	
4.92339	  0.001742	  0.002115	  0.000310	
4.95665	  0.001788	  0.002119	  0.000292	
4.98992	  0.001861	  0.002167	  0.000542	
5.02319	  0.001959	  0.002295	  0.001202	
5.05645	  0.002069	  0.002549	  0.002424	
5.08972	  0.002174	  0.002981	  0.004370	
5.12298	  0.002269	  0.003640	  0.007213	
5.15625	  0.002368	  0.004565	  0.011109	
5.18952	  0.002503	  0.005771	  0.016116	
5.22278	  0.002700	  0.007232	  0.022089	
5.25605	  0.002964	  0.008859	  0.028617	
5.28931	  0.003273	  0.010516	  0.035117	
5.32258	  0.003597	  0.012064	  0.041096	
5.35585	  0.003910	  0.013437	  0.046476	
5.38911	  0.004211	  0.014702	  0.051721	
5.42238	  0.004517	  0.016040	  0.057652	
5.45565	  0.004849	  0.017668	  0.065015	
5.48891	  0.005220	  0.019743	  0.074100	
5.52218	  0.005629	  0.022300	  0.084609	
5.55544	  0.006052	  0.025228	  0.095808	
5.58871	  0.006455	  0.028272	  0.106806	
5.62198	  0.006797	  0.031090	  0.116805	
5.65524	  0.007056	  0.033367	  0.125245	
5.68851	  0.007241	  0.034951	  0.131863	
5.72177	  0.007390	  0.035931	  0.136755	
5.75504	  0.007539	  0.036562	  0.140419	
5.78831	  0.007697	  0.037105	  0.143722	
5.82157	  0.007847	  0.037712	  0.147709	
5.85484	  0.007974	  0.038423	  0.153311	
5.8881	  0.008091	  0.039239	  0.161119	
5.92137	  0.008239	  0.040170	  0.171417	
5.95464	  0.008472	  0.041244	  0.184493	
5.9879	  0.008836	  0.042523	  0.200957	
6.02117	  0.009375	  0.044154	  0.221665	
6.05444	  0.010130	  0.046350	  0.247133	
6.0877	  0.011109	  0.049273	  0.276818	
6.12097	  0.012267	  0.052895	  0.308922	
6.15423	  0.013501	  0.057007	  0.341017	
6.1875	  0.014701	  0.061364	  0.371051	
6.22077	  0.015812	  0.065832	  0.397953	
6.25403	  0.016847	  0.070400	  0.421568	
6.2873	  0.017859	  0.075098	  0.442397	
6.32056	  0.018906	  0.079969	  0.461560	
6.35383	  0.020027	  0.085122	  0.480770	
6.3871	  0.021253	  0.090749	  0.501792	
6.42036	  0.022608	  0.096996	  0.525466	
6.45363	  0.024100	  0.103781	  0.551069	
6.4869	  0.025689	  0.110697	  0.576652	
6.52016	  0.027268	  0.117109	  0.600085	
6.55343	  0.028674	  0.122367	  0.620061	
6.58669	  0.029741	  0.126018	  0.636558	
6.61996	  0.030390	  0.127948	  0.650740	
6.65323	  0.030673	  0.128398	  0.664408	
6.68649	  0.030740	  0.127851	  0.679122	
6.71976	  0.030746	  0.126807	  0.695403	
6.75302	  0.030771	  0.125636	  0.712530	
6.78629	  0.030827	  0.124630	  0.728918	
6.81956	  0.030928	  0.124160	  0.742434	
6.85282	  0.031128	  0.124681	  0.750430	
6.88609	  0.031482	  0.126472	  0.750178	
6.91935	  0.031980	  0.129387	  0.740270	
6.95262	  0.032542	  0.132917	  0.722065	
6.98589	  0.033062	  0.136514	  0.699602	
7.01915	  0.033460	  0.139808	  0.677672	
7.05242	  0.033678	  0.142524	  0.659543	
7.08569	  0.033676	  0.144316	  0.645872	
7.11895	  0.033448	  0.144862	  0.634994	
7.15222	  0.033061	  0.144182	  0.624065	
7.18548	  0.032645	  0.142747	  0.610731	
7.21875	  0.032314	  0.141162	  0.594889	
7.25202	  0.032099	  0.139671	  0.579482	
7.28528	  0.031954	  0.137970	  0.569332	
7.31855	  0.031839	  0.135504	  0.568493	
7.35181	  0.031783	  0.132023	  0.577932	
7.38508	  0.031874	  0.127905	  0.595187	
7.41835	  0.032195	  0.124032	  0.616131	
7.45161	  0.032761	  0.121289	  0.637379	
7.48488	  0.033507	  0.120068	  0.657523	
7.51815	  0.034307	  0.120131	  0.676487	
7.55141	  0.035014	  0.120911	  0.694016	
7.58468	  0.035512	  0.122021	  0.708949	
7.61794	  0.035762	  0.123530	  0.719914	
7.65121	  0.035827	  0.125817	  0.726568	
7.68448	  0.035817	  0.129114	  0.730017	
7.71774	  0.035791	  0.133118	  0.731903	
7.75101	  0.035672	  0.136989	  0.732878	
7.78427	  0.035295	  0.139780	  0.731870	
7.81754	  0.034557	  0.141008	  0.727046	
7.85081	  0.033549	  0.140916	  0.717914	
7.88407	  0.032554	  0.140246	  0.706628	
7.91734	  0.031894	  0.139771	  0.697114	
7.9506	  0.031755	  0.139977	  0.692638	
7.98387	  0.032114	  0.141065	  0.693856	
8.01714	  0.032803	  0.143051	  0.698719	
8.0504	  0.033622	  0.145761	  0.703903	
8.08367	  0.034419	  0.148721	  0.706429	
8.11694	  0.035086	  0.151175	  0.704520	
8.1502	  0.035515	  0.152303	  0.697624	
8.18347	  0.035559	  0.151535	  0.686094	
8.21673	  0.035068	  0.148745	  0.670885	
8.25	  0.033989	  0.144258	  0.653389	
8.28327	  0.032445	  0.138734	  0.635417	
8.31653	  0.030728	  0.133041	  0.619275	
8.3498	  0.029198	  0.128147	  0.607777	
8.38306	  0.028160	  0.125005	  0.603931	
8.41633	  0.027785	  0.124366	  0.610158	
8.4496	  0.028107	  0.126520	  0.627268	
8.48286	  0.029041	  0.131062	  0.653836	
8.51613	  0.030431	  0.136944	  0.686543	
8.5494	  0.032118	  0.142932	  0.721432	
8.58266	  0.034001	  0.148237	  0.755191	
8.61593	  0.036043	  0.152807	  0.785400	
8.64919	  0.038193	  0.157034	  0.809575	
8.68246	  0.040312	  0.161171	  0.824243	
8.71573	  0.042187	  0.165021	  0.825581	
8.74899	  0.043621	  0.168072	  0.811574	
8.78226	  0.044510	  0.169723	  0.783755	
8.81552	  0.044812	  0.169323	  0.746733	
8.84879	  0.044483	  0.166187	  0.705898	
8.88206	  0.043475	  0.159890	  0.665386	
8.91532	  0.041812	  0.150760	  0.627734	
8.94859	  0.039659	  0.140063	  0.594728	
8.98185	  0.037308	  0.129613	  0.567983	
9.01512	  0.035083	  0.121042	  0.548588	
9.04839	  0.033264	  0.115313	  0.536599	
9.08165	  0.032067	  0.112750	  0.531422	
9.11492	  0.031660	  0.113343	  0.532881	
9.14819	  0.032139	  0.116897	  0.541567	
9.18145	  0.033453	  0.122906	  0.557526	
9.21472	  0.035363	  0.130398	  0.578241	
9.24798	  0.037473	  0.138069	  0.598057	
9.28125	  0.039341	  0.144674	  0.610115	
9.31452	  0.040582	  0.149400	  0.609615	
9.34778	  0.040943	  0.151956	  0.596097	
9.38105	  0.040335	  0.152419	  0.573375	
9.41431	  0.038847	  0.151027	  0.547559	
9.44758	  0.036720	  0.148058	  0.524592	
9.48085	  0.034283	  0.143851	  0.508455	
9.51411	  0.031880	  0.138885	  0.500254	
9.54738	  0.029807	  0.133816	  0.497882	
9.58065	  0.028283	  0.129367	  0.496309	
9.61391	  0.027453	  0.126138	  0.488906	
9.64718	  0.027403	  0.124563	  0.469677	
9.68044	  0.028212	  0.125077	  0.435305	
9.71371	  0.029952	  0.128166	  0.386018	
9.74698	  0.032570	  0.133821	  0.325266	
9.78024	  0.035645	  0.140418	  0.258795	
9.81351	  0.038207	  0.144013	  0.193319	
9.84677	  0.038916	  0.139263	  0.134830	
9.88004	  0.036672	  0.122029	  0.087027	
9.91331	  0.031284	  0.092045	  0.050703	
9.94657	  0.023727	  0.053691	  0.024341	
